<?xml version="1.0" encoding="UTF-8" standalone="no"?>
<!-- Created with sK1/UniConvertor (http://sk1project.org/) -->

<svg
   xmlns:dc="http://purl.org/dc/elements/1.1/"
   xmlns:cc="http://creativecommons.org/ns#"
   xmlns:rdf="http://www.w3.org/1999/02/22-rdf-syntax-ns#"
   xmlns:svg="http://www.w3.org/2000/svg"
   xmlns="http://www.w3.org/2000/svg"
   xmlns:sodipodi="http://sodipodi.sourceforge.net/DTD/sodipodi-0.dtd"
   xmlns:inkscape="http://www.inkscape.org/namespaces/inkscape"
   width="595.276pt"
   height="841.89pt"
   viewBox="0 0 595.276 841.89"
   fill-rule="evenodd"
   id="svg2837"
   version="1.1"
   inkscape:version="0.47pre4 r22446"
   sodipodi:docname="Galo_de_BARCELOS.cdr">
  <metadata
     id="metadata2895">
    <rdf:RDF>
      <cc:Work
         rdf:about="">
        <dc:format>image/svg+xml</dc:format>
        <dc:type
           rdf:resource="http://purl.org/dc/dcmitype/StillImage" />
        <dc:title></dc:title>
      </cc:Work>
    </rdf:RDF>
  </metadata>
  <sodipodi:namedview
     pagecolor="#ffffff"
     bordercolor="#666666"
     borderopacity="1"
     objecttolerance="10"
     gridtolerance="10"
     guidetolerance="10"
     inkscape:pageopacity="0"
     inkscape:pageshadow="2"
     inkscape:window-width="1280"
     inkscape:window-height="726"
     id="namedview2893"
     showgrid="false"
     inkscape:zoom="0.22425732"
     inkscape:cx="372.04749"
     inkscape:cy="526.18127"
     inkscape:window-x="0"
     inkscape:window-y="24"
     inkscape:window-maximized="1"
     inkscape:current-layer="svg2837" />
  <defs
     id="defs2839">
    <inkscape:perspective
       sodipodi:type="inkscape:persp3d"
       inkscape:vp_x="0 : 526.18127 : 1"
       inkscape:vp_y="0 : 1000 : 0"
       inkscape:vp_z="744.09497 : 526.18127 : 1"
       inkscape:persp3d-origin="372.04749 : 350.78752 : 1"
       id="perspective2897" />
    <marker
       id="ArrowEnd"
       viewBox="0 0 10 10"
       refX="0"
       refY="5"
       markerUnits="strokeWidth"
       markerWidth="4"
       markerHeight="3"
       orient="auto">
      <path
         d="M 0 0 L 10 5 L 0 10 z"
         id="path2842" />
    </marker>
    <marker
       id="ArrowStart"
       viewBox="0 0 10 10"
       refX="10"
       refY="5"
       markerUnits="strokeWidth"
       markerWidth="4"
       markerHeight="3"
       orient="auto">
      <path
         d="M 10 0 L 0 5 L 10 10 z"
         id="path2845" />
    </marker>
  </defs>
  <g
     id="g2847"
     transform="translate(-32.105977,7.1346616)">
    <g
       id="g2849">
      <g
         id="g2851">
        <path
           style="fill:#ff0000;stroke:none"
           d="M 124.023,204.533 C 90.2594,181.494 42.5932,74.2451 152.225,47.6315 259.077,28.9622 300.388,129.458 275.76,190.233 c -16.683,29.394 -29.791,39.722 -29.791,39.722 0,0 -20.258,9.93 -10.328,-10.725 9.931,-20.655 23.436,-56.405 -3.177,-79.841 -24.231,-21.847 -45.681,11.519 -39.325,22.641 8.739,12.711 -25.819,21.053 -25.819,21.053 l -43.297,21.45 z"
           id="path2853" />
        <path
           style="fill:#000000;stroke:none"
           d="m 141.623,185.942 c 0,0 -5.89,31.931 15.501,40.611 21.39,8.681 13.33,31.311 13.33,31.311 l -3.1,40.921 c 0,0 -2.48,84.013 -15.501,127.414 -17.778,36.805 -26.094,64.354 -22.327,84.887 8.021,43.729 51.418,58.115 58.599,65.778 4.96,1.55 10.54,11.16 6.51,19.22 -4.03,8.061 -1.55,26.041 -18.291,31.621 -16.74,5.581 -44.641,42.782 -44.641,63.862 0,21.081 0.93,34.721 0.93,34.721 0,0 9.3,46.192 102.303,51.152 93.003,4.96 150.355,-18.601 158.415,-47.742 8.06,-29.14 6.2,-74.712 -30.691,-95.792 -8.419,-4.155 -24.306,-12.357 -27.242,-18.866 -10.637,-23.579 1.613,-34.26 19.182,-40.036 35.242,2.127 59.831,2.48 59.831,2.48 0,0 10.541,3.1 4.961,-11.781 -5.581,-14.88 -36.466,-73.684 -40.302,-91.762 -1.226,-5.538 -3.547,-16.802 0.549,-23.306 8.833,-14.027 41.616,-39.289 57.733,16.486 5.363,36.506 -7.44,50.531 -7.44,50.531 0,0 -1.419,11.551 10.981,8.451 33.473,-13.383 124.839,-89.979 70.861,-202.827 -20.77,-42.929 -92.839,-108.959 -181.975,-55.182 -54.177,45.896 -24.181,122.764 -24.181,138.265 5.355,17.97 0.606,31.768 -12.498,38.652 -18.566,9.753 -53.252,10.466 -57.564,-32.452 -8.386,-74.843 -14.88,-212.046 -14.88,-212.046 0,0 0.93,-22.321 -26.351,-36.272 -33.108,-10.865 -53.045,13.818 -52.702,21.701 z"
           id="path2855" />
        <path
           style="fill:#ffff00;stroke:none"
           d="m 203.343,229.697 c 0,0 8.129,42.833 -12.193,63.781 -19.697,-18.134 -18.759,-65.032 -16.571,-70.659 2.189,-5.628 18.759,-17.196 28.764,6.878 z"
           id="path2857" />
        <path
           style="fill:#ffba00;stroke:none"
           d="m 186.773,220.005 3.126,65.969 c 0,0 -19.384,-36.893 -12.193,-60.967 2.188,-4.689 9.067,-5.002 9.067,-5.002 z"
           id="path2859" />
        <path
           style="fill:#ff0000;stroke:none"
           d="m 173.485,175.296 c 8.718,0 15.789,6.72 15.789,15.007 0,8.286 -7.071,15.007 -15.789,15.007 -8.719,0 -15.789,-6.721 -15.789,-15.007 0,-8.287 7.07,-15.007 15.789,-15.007 z m 0,8.441 c 3.814,0 6.907,2.94 6.907,6.566 0,3.625 -3.093,6.566 -6.907,6.566 -3.815,0 -6.908,-2.941 -6.908,-6.566 0,-3.626 3.093,-6.566 6.908,-6.566 z"
           id="path2861" />
        <path
           style="fill:#ffff00;stroke:none"
           d="m 141.438,185.613 c 0,0 17.821,23.762 16.883,41.27 -2.475,7.113 -36.189,1.641 -58.4658,5.003 -5.9403,2.813 -8.7542,-6.879 -3.7518,-10.005 4.2986,-3.831 31.2386,-29.729 45.3346,-36.268 z"
           id="path2863" />
        <path
           style="fill:#ffba00;stroke:none"
           d="m 145.524,200.66 -51.7766,24.7 c 0,0 -0.9262,3.179 0.0252,2.962 9.2654,-2.116 34.5024,-9.313 49.6784,-20.967 3.565,-3.269 2.073,-6.695 2.073,-6.695 z"
           id="path2865" />
        <path
           style="fill:#ff0000;stroke:none"
           d="m 93.5327,226.475 c -0.1295,2.979 47.1413,-18.121 48.9033,-21.756 0.745,1.45 1.043,1.705 1.39,3.465 -12.311,8.316 -32.449,16.792 -50.0721,20.058 l -0.2212,-1.767 z"
           id="path2867" />
        <path
           style="fill:#ff0000;stroke:none"
           d="m 139.531,237.229 0.26,-5.966 0,-3.064 c 0,0 15.887,-4.15 20.751,-0.567 8.041,5.966 15.045,5.447 12.451,47.728 0,12.191 -3.891,19.973 -5.188,21.27 -1.297,1.297 -28.793,1.556 -31.387,-23.864 0.779,-22.567 3.113,-35.537 3.113,-35.537 z"
           id="path2869" />
        <path
           style="fill:#b40000;stroke:none"
           d="m 167.027,296.37 c 0,0 -18.936,-0.778 -22.049,-7.522 -3.112,-6.744 0.779,-5.966 7.263,-8.56 6.485,-2.594 16.083,-10.376 17.639,-16.86 1.556,-6.485 5.188,15.044 -2.853,32.942 z"
           id="path2871" />
        <path
           style="fill:#b40000;stroke:none"
           d="m 187.446,160.31 c 0,0 -2.649,0.263 -0.663,-9.667 -1.058,-4.769 -4.105,1.46 -4.634,3.709 0,0 4.234,-21.186 10.593,-27.277 9.931,-5.164 24.23,-13.902 46.474,5.561 0.673,4.113 -3.575,3.178 -3.575,3.178 l 0.795,5.958 c 0,0 -11.386,-11.388 -20.919,-10.593 -9.534,0.794 -24.895,8.211 -23.172,29.66 2.649,5.7 -4.899,-0.529 -4.899,-0.529 z"
           id="path2873" />
        <path
           style="fill:#ffffff;stroke:none"
           d="m 451.959,355.068 c 0.037,-0.624 0.098,-1.249 0.184,-1.874 1.323,-9.601 8.198,-17.823 16.455,-22.495 5.11,-2.892 10.97,-4.569 16.864,-4.42 13.466,0.34 22.49,9.635 27.046,21.661 l 0.035,0.092 0.031,0.094 c 11.656,34.71 7.105,69.778 -9.691,101.854 -5.535,10.57 -12.294,20.644 -19.928,29.814 -3.079,3.699 -6.597,7.717 -10.154,10.986 l -7.523,6.913 -1.104,-10.157 c -0.659,-6.063 -0.714,-12.121 -0.827,-18.211 -0.1,-5.402 -0.249,-10.885 -1.165,-16.22 -2.873,-16.752 -13.52,-26.324 -27.929,-34.281 l -0.286,-0.158 -0.263,-0.192 c -8.42,-6.15 -17.214,-14.323 -21.292,-24.14 -3.018,-7.264 -3.183,-14.983 0.406,-22.075 3.546,-7.009 10.121,-12.138 17.293,-15.074 6.62,-2.71 14.68,-3.847 21.848,-2.117 z"
           id="path2875" />
        <path
           style="fill:#ff0000;stroke:none"
           d="m 469.307,486.978 c 0,0 64.535,-59.302 38.372,-137.209 -14.23,-37.561 -60.1,-9.61 -48.837,14.535 -18.023,-16.86 -73.837,12.209 -22.093,50 38.953,21.512 29.651,45.93 32.558,72.674 z"
           id="path2877" />
        <path
           style="fill:#ffffff;stroke:none"
           d="m 389.746,553.531 c -0.417,-0.188 -0.801,-0.459 -1.138,-0.793 -9.199,-6.35 -18.301,-9.407 -29.519,-7.966 -8.839,1.135 -17.212,4.71 -26.09,5.444 -10.674,0.882 -19.082,-2.852 -27.003,-9.863 l -0.368,-0.325 -0.25,-0.422 c -3.048,-5.139 -4.857,-11.412 -1.307,-16.801 2.288,-3.475 6.184,-5.565 10.046,-6.823 2.773,-0.904 5.734,-1.459 8.636,-1.729 0.733,-0.069 1.594,-0.136 2.473,-0.168 0.811,-5.439 3.422,-10.216 8.107,-13.543 8.714,-6.191 22.521,-5.536 30.911,0.923 5.691,4.381 10.344,10.649 14.078,16.732 3.836,6.25 7.051,12.887 10.022,19.585 1.077,2.426 2.114,4.869 3.188,7.297 0.339,0.767 0.922,2.207 1.431,3.065 l 4.929,3.497 -1.833,0.64 9.071,11.982 -15.384,-10.732 z"
           id="path2879" />
        <path
           style="fill:#ff0000;stroke:none"
           d="m 391.135,550.685 c -1.735,0.607 -11.857,-33.695 -28.801,-46.74 -10.861,-8.361 -33.776,-6.023 -34.248,13.381 -3.669,-0.667 -31.691,1.001 -20.015,20.683 29.022,25.686 46.369,-13.344 83.064,12.676 z"
           id="path2881" />
        <path
           style="fill:#ffffff;stroke:none"
           d="m 131.623,477.095 c 0,0 9.509,-11.359 10.302,32.755 -0.265,6.075 -4.63,14.438 -3.838,23.947 -0.792,-2.377 -15.71,-22.363 -6.464,-56.702 z"
           id="path2883" />
        <path
           style="fill:#ff0000;stroke:none"
           d="m 131.208,480.14 c 0,0 8.255,-9.86 8.943,28.434 -0.23,5.274 -4.816,13.529 -4.128,21.784 -0.688,-2.064 -12.841,-20.408 -4.815,-50.218 z"
           id="path2885" />
        <path
           style="fill:#00ffff;stroke:none"
           d="m 193.525,597.964 c 0,0 44.465,25.789 138.924,3.003 4.143,10.357 6.922,20.418 19.351,25.39 31.486,13.257 63.805,57.472 39.775,111.744 -35.635,52.083 -236.232,60.058 -259.284,-11.543 -8.586,-51.912 8.868,-67.63 23.783,-83.373 20.729,-24.901 29.994,-6.691 37.451,-45.221 z"
           id="path2887" />
        <path
           style="fill:#ffff00;stroke:none"
           d="m 217.539,606.059 -8.197,-1.948 c 0,0 -2.241,29.559 -21.118,47.428 -12.79,3.843 -40.965,18.805 -46.088,32.125 -0.226,5.114 1.537,8.047 1.537,8.047 0,0 7.62,-12.854 30.835,-24.077 -2.327,1.481 -18.161,28.687 -16.112,34.322 3.108,4.047 5.682,3.437 8.329,3.437 5.453,-10.973 9.583,-24.46 16.359,-32.918 0,0 -0.214,31.846 2.348,35.944 4.282,1.849 11.385,-2.399 11.385,-2.399 0,0 -4.183,-38.468 -0.247,-49.328 1.024,-7.684 17.383,-8.114 20.969,-50.633 z"
           id="path2889" />
      </g>
    </g>
  </g>
  <g
     id="g2891" />
</svg>
